# xmcd CD database file
#
# Track frame offsets:
#	150
#	34445
#	89515
#	146596
#	166405
#	198610
#	252413
#	262340
#
# Disc length: 3751 seconds
#
# Revision: 1
# Processed by: cddbd v1.5.2PL0 Copyright (c) Steve Scherf et al.
# Submitted via: CDex 2.23
#
DISCID=7e0ea508
DTITLE=Hans Zimmer - Live In Prague [CD 1)
DYEAR=2017
DGENRE=Soundtrack
TTITLE0=Opening Medley: Driving [Driving Miss Daisy]/Discombobulate [Sherlock Holmes]/Zoosters Breakout [Madagascar] [live]
TTITLE1=Crimson Tide [Crimson Tide]/160 BPM [Angels And Demons] [live]
TTITLE2=Gladiator: The Wheat/The Battle/Elysium/Now We Are Free [live]
TTITLE3=Chevaliers de Sangreal [The Da Vinci Code] [live]
TTITLE4=The Lion King: Circle Of Live [prelude]/King Of Pride Rock [reprise] [live]
TTITLE5=Pirates Of The Caribbean: Captain Jack Sparrow/One Day/Up Is Down/He's A Pirate [live]
TTITLE6=You're So Cool [True Romance] [live]
TTITLE7=Main Theme [Rain Man] [live]
EXTD=YEAR: 2017
EXTT0=
EXTT1=
EXTT2=
EXTT3=
EXTT4=
EXTT5=
EXTT6=
EXTT7=
PLAYORDER=
